<svg width="448" height="328" viewBox="0 0 448 328" fill="none" xmlns="http://www.w3.org/2000/svg">
<path d="M329.631 243.902C289.942 243.902 254.858 246.841 233.408 251.36C213.675 244.264 187.456 239.943 158.672 239.943C97.3196 239.943 47.583 259.589 47.583 283.829C47.583 308.068 97.3196 327.714 158.672 327.714C220.024 327.714 269.761 308.068 269.761 283.829C269.761 281.476 269.275 279.173 268.379 276.919C286.244 278.55 307.21 279.496 329.631 279.496C394.955 279.496 447.891 271.528 447.891 261.706C447.904 251.858 394.955 243.902 329.631 243.902Z" fill="#EDEEF2"/>
<path d="M254.286 259.738C250.65 259.738 247.276 256.178 246.766 251.808L232.399 130.174C231.876 125.804 235.001 122.256 239.358 122.256H419.929C424.274 122.256 427.399 125.804 426.888 130.174L412.521 251.808C411.999 256.178 408.625 259.738 405.002 259.738H254.286Z" fill="#F6F6F6"/>
<path d="M419.63 124.995C422.469 124.995 424.511 127.323 424.187 130.187L410.218 251.821C409.895 254.684 407.679 257.012 405.288 257.012H253.987C251.596 257.012 249.393 254.684 249.057 251.821L235.088 130.187C234.764 127.323 236.806 124.995 239.645 124.995H419.63ZM420.215 119.53H239.06C233.183 119.53 228.988 124.31 229.697 130.187L244.463 251.821C245.172 257.697 249.717 262.477 254.584 262.477H404.691C409.558 262.477 414.09 257.697 414.812 251.821L429.578 130.187C430.287 124.31 426.092 119.53 420.215 119.53Z" fill="#3C4242"/>
<path d="M419.63 124.995H393.486L386.091 220.87C385.867 223.734 383.663 226.062 381.173 226.062H246.106L249.069 251.808C249.405 254.671 251.609 257 253.999 257H405.288C407.678 257 409.882 254.671 410.218 251.808L424.187 130.174C424.51 127.311 422.469 124.995 419.63 124.995Z" fill="#EDEEF2"/>
<path d="M419.63 124.995H409.857L399.175 235.337C398.901 238.201 396.685 240.529 394.232 240.529H247.761L249.056 251.821C249.392 254.684 251.596 257.012 253.986 257.012H405.275C407.665 257.012 409.869 254.684 410.205 251.821L424.174 130.187C424.51 127.311 422.468 124.995 419.63 124.995Z" fill="#8A33FD"/>
<path d="M245.994 155.472L252.206 214.733" stroke="white" stroke-width="5.46568" stroke-miterlimit="10" stroke-linecap="round" stroke-linejoin="round"/>
<path d="M278.961 241.076C279.073 242.633 278.089 243.902 276.757 243.902H270.358C269.038 243.902 267.843 242.633 267.706 241.076L261.407 168.582C261.27 167.013 262.353 165.756 263.834 165.756H270.931C272.412 165.756 273.682 167.013 273.794 168.582L278.961 241.076Z" fill="#BEBCBD" stroke="#3C4242" stroke-width="5.46568" stroke-miterlimit="10" stroke-linecap="round" stroke-linejoin="round"/>
<path d="M307.11 241.076C307.16 242.633 306.126 243.902 304.794 243.902H298.395C297.063 243.902 295.93 242.633 295.855 241.076L292.419 168.582C292.344 167.013 293.477 165.756 294.946 165.756H302.043C303.512 165.756 304.757 167.013 304.807 168.582L307.11 241.076Z" fill="#BEBCBD" stroke="#3C4242" stroke-width="5.46568" stroke-miterlimit="10" stroke-linecap="round" stroke-linejoin="round"/>
<path d="M335.258 241.076C335.246 242.633 334.163 243.902 332.831 243.902H326.444C325.112 243.902 324.029 242.633 324.016 241.076L323.443 168.582C323.431 167.013 324.614 165.756 326.083 165.756H333.179C334.661 165.756 335.843 167.013 335.831 168.582L335.258 241.076Z" fill="#BEBCBD" stroke="#3C4242" stroke-width="5.46568" stroke-miterlimit="10" stroke-linecap="round" stroke-linejoin="round"/>
<path d="M363.407 241.076C363.332 242.633 362.199 243.902 360.867 243.902H354.468C353.136 243.902 352.102 242.633 352.152 241.076L354.443 168.582C354.493 167.013 355.725 165.756 357.207 165.756H364.303C365.772 165.756 366.917 167.013 366.843 168.582L363.407 241.076Z" fill="#BEBCBD" stroke="#3C4242" stroke-width="5.46568" stroke-miterlimit="10" stroke-linecap="round" stroke-linejoin="round"/>
<path d="M391.556 241.076C391.419 242.633 390.236 243.902 388.904 243.902H382.505C381.173 243.902 380.189 242.633 380.301 241.076L385.455 168.582C385.567 167.013 386.85 165.756 388.319 165.756H395.415C396.884 165.756 397.98 167.013 397.843 168.582L391.556 241.076Z" fill="#BEBCBD" stroke="#3C4242" stroke-width="5.46568" stroke-miterlimit="10" stroke-linecap="round" stroke-linejoin="round"/>
<path d="M265.926 128.929C265.129 130.162 263.486 130.523 262.266 129.726L256.327 125.904C255.095 125.107 254.734 123.464 255.531 122.244L292.357 64.9626C293.154 63.7301 294.797 63.3815 296.03 64.1659L301.968 67.9755C303.201 68.7723 303.562 70.4156 302.765 71.6481L265.926 128.929Z" fill="#BEBCBD" stroke="#3C4242" stroke-width="5.46568" stroke-miterlimit="10" stroke-linecap="round" stroke-linejoin="round"/>
<path d="M393.337 128.929C394.133 130.162 395.777 130.523 397.009 129.726L402.948 125.904C404.18 125.107 404.529 123.464 403.745 122.244L366.918 64.9626C366.122 63.7301 364.478 63.3815 363.258 64.1659L357.32 67.9755C356.087 68.7723 355.726 70.4156 356.523 71.6481L393.337 128.929Z" fill="#BEBCBD" stroke="#3C4242" stroke-width="5.46568" stroke-miterlimit="10" stroke-linecap="round" stroke-linejoin="round"/>
<path d="M227.158 148.525C222.962 148.525 219.551 145.114 219.551 140.918V126.078C219.551 121.883 222.962 118.472 227.158 118.472H432.105C436.301 118.472 439.712 121.883 439.712 126.078V140.918C439.712 145.114 436.301 148.525 432.105 148.525H227.158Z" fill="#F6F6F6"/>
<path d="M432.117 121.198C434.819 121.198 436.997 123.377 436.997 126.078V140.918C436.997 143.608 434.819 145.799 432.117 145.799H227.157C224.468 145.799 222.277 143.62 222.277 140.918V126.078C222.277 123.389 224.468 121.198 227.157 121.198H432.117ZM432.117 115.733H227.157C221.455 115.733 216.812 120.376 216.812 126.078V140.918C216.812 146.62 221.455 151.264 227.157 151.264H432.105C437.807 151.264 442.45 146.62 442.45 140.918V126.078C442.463 120.376 437.819 115.733 432.117 115.733Z" fill="#3C4242"/>
<path d="M432.117 121.198H422.356V128.618C422.356 131.32 420.178 133.498 417.476 133.498H222.277V140.918C222.277 143.608 224.468 145.799 227.157 145.799H432.104C434.806 145.799 436.985 143.62 436.985 140.918V126.078C436.997 123.389 434.806 121.198 432.117 121.198Z" fill="#8A33FD"/>
<path d="M69.7064 186.858C69.2831 186.858 68.8473 186.758 68.4614 186.559L42.3792 173.25C41.4206 172.765 40.8355 171.744 40.8853 170.673C40.9475 169.59 41.6323 168.656 42.6282 168.27L131.594 134.071C131.905 133.946 132.241 133.884 132.577 133.884C132.876 133.884 133.187 133.934 133.474 134.034L155.746 141.765C156.842 142.151 157.589 143.184 157.589 144.342V151.389C157.589 152.521 156.892 153.53 155.834 153.941L70.6774 186.684C70.3662 186.796 70.0425 186.858 69.7064 186.858Z" fill="#EDEEF2"/>
<path d="M132.59 136.623L154.862 144.354V151.401L69.7062 184.144L43.624 170.823L132.59 136.623ZM132.59 131.158C131.917 131.158 131.258 131.282 130.623 131.519L41.6694 165.718C39.6526 166.49 38.2831 168.382 38.171 170.536C38.059 172.69 39.2168 174.707 41.1465 175.69L67.2287 188.999C68.0006 189.398 68.8596 189.597 69.7186 189.597C70.3785 189.597 71.0507 189.472 71.6857 189.236L156.842 156.493C158.958 155.684 160.34 153.654 160.34 151.389V144.342C160.34 142.014 158.871 139.935 156.667 139.175L134.395 131.444C133.81 131.257 133.2 131.158 132.59 131.158Z" fill="#3C4242"/>
<path d="M85.094 178.205L68.0006 170.026L145.986 141.254L132.59 136.623L43.624 170.823L69.7062 184.131L85.094 178.205Z" fill="#BEBCBD"/>
<path d="M247.637 186.858C247.301 186.858 246.977 186.796 246.654 186.671L161.498 153.928C160.439 153.517 159.742 152.509 159.742 151.376V144.33C159.742 143.159 160.477 142.126 161.585 141.753L183.857 134.021C184.144 133.922 184.455 133.872 184.754 133.872C185.09 133.872 185.414 133.934 185.737 134.059L274.703 168.258C275.711 168.644 276.396 169.59 276.446 170.661C276.508 171.744 275.923 172.752 274.964 173.238L248.882 186.547C248.496 186.758 248.073 186.858 247.637 186.858Z" fill="#EDEEF2"/>
<path d="M184.754 136.623L273.72 170.823L247.638 184.131L162.482 151.389V144.342L184.754 136.623ZM184.754 131.158C184.144 131.158 183.546 131.257 182.961 131.457L160.689 139.188C158.485 139.947 157.016 142.026 157.016 144.354V151.401C157.016 153.667 158.41 155.696 160.527 156.505L245.683 189.248C246.318 189.497 246.978 189.609 247.65 189.609C248.509 189.609 249.356 189.41 250.14 189.012L276.222 175.703C278.139 174.719 279.31 172.702 279.198 170.549C279.086 168.395 277.716 166.503 275.699 165.731L186.734 131.531C186.086 131.27 185.414 131.158 184.754 131.158Z" fill="#3C4242"/>
<path d="M232.249 178.205L249.355 170.026L171.358 141.254L184.754 136.623L273.72 170.823L247.637 184.131L232.249 178.205Z" fill="#BEBCBD"/>
<path d="M247.638 276.869C247.302 276.869 246.978 276.807 246.654 276.683L157.689 242.483C156.63 242.072 155.933 241.064 155.933 239.931V150.965C155.933 150.069 156.381 149.222 157.116 148.712C157.576 148.401 158.112 148.226 158.66 148.226C158.996 148.226 159.319 148.289 159.643 148.413L248.609 182.612C249.667 183.023 250.364 184.032 250.364 185.165V274.13C250.364 275.027 249.916 275.873 249.182 276.384C248.721 276.707 248.186 276.869 247.638 276.869Z" fill="#BEBCBD"/>
<path d="M158.672 150.965L247.638 185.165V274.13L158.672 239.931V150.965ZM158.672 145.5C157.576 145.5 156.506 145.824 155.572 146.458C154.09 147.479 153.207 149.16 153.207 150.965V239.931C153.207 242.197 154.601 244.226 156.705 245.035L245.671 279.235C246.306 279.484 246.965 279.596 247.638 279.596C248.733 279.596 249.804 279.272 250.738 278.637C252.219 277.616 253.103 275.936 253.103 274.13V185.165C253.103 182.899 251.709 180.87 249.592 180.06L160.627 145.861C160.004 145.624 159.332 145.5 158.672 145.5Z" fill="#3C4242"/>
<path d="M227.108 177.272L158.672 206.466V239.931L247.638 274.143V185.165L227.108 177.272Z" fill="#8A33FD"/>
<path d="M158.672 312.351C158.125 312.351 157.589 312.189 157.129 311.865C156.382 311.355 155.946 310.508 155.946 309.612V220.646C155.946 219.513 156.643 218.505 157.701 218.094L246.667 183.895C246.978 183.77 247.314 183.708 247.65 183.708C248.198 183.708 248.734 183.87 249.194 184.194C249.941 184.704 250.377 185.551 250.377 186.447V275.413C250.377 276.546 249.68 277.554 248.622 277.965L159.656 312.164C159.332 312.289 159.008 312.351 158.672 312.351Z" fill="#EDEEF2"/>
<path d="M247.638 186.447V275.413L158.672 309.612V220.646L247.638 186.447ZM247.638 180.982C246.978 180.982 246.306 181.106 245.671 181.343L156.705 215.542C154.588 216.351 153.207 218.381 153.207 220.646V309.612C153.207 311.417 154.09 313.098 155.572 314.119C156.493 314.754 157.576 315.077 158.672 315.077C159.332 315.077 160.004 314.953 160.639 314.716L249.605 280.517C251.721 279.708 253.116 277.679 253.116 275.413V186.447C253.116 184.642 252.232 182.961 250.75 181.94C249.804 181.305 248.733 180.982 247.638 180.982Z" fill="#3C4242"/>
<path d="M232.25 192.373V262.589L158.672 290.875V309.625L247.638 275.413V186.447L232.25 192.373Z" fill="#BEBCBD"/>
<path d="M69.7065 276.869C69.1587 276.869 68.6233 276.707 68.1627 276.384C67.4157 275.873 66.98 275.027 66.98 274.13V185.165C66.98 184.032 67.6772 183.023 68.7354 182.612L157.701 148.413C158.012 148.289 158.348 148.226 158.685 148.226C159.232 148.226 159.768 148.388 160.228 148.712C160.975 149.222 161.411 150.069 161.411 150.965V239.931C161.411 241.064 160.714 242.072 159.656 242.483L70.69 276.683C70.3663 276.807 70.0426 276.869 69.7065 276.869Z" fill="#EDEEF2"/>
<path d="M158.672 150.965V239.931L69.7064 274.13V185.165L158.672 150.965ZM158.672 145.5C158.012 145.5 157.352 145.624 156.705 145.861L67.7393 180.06C65.6229 180.87 64.2285 182.899 64.2285 185.165V274.13C64.2285 275.936 65.1124 277.616 66.594 278.637C67.5152 279.272 68.5984 279.596 69.6939 279.596C70.3538 279.596 71.0261 279.471 71.661 279.235L160.627 245.035C162.743 244.226 164.125 242.197 164.125 239.931V150.965C164.125 149.16 163.241 147.479 161.76 146.458C160.851 145.824 159.768 145.5 158.672 145.5Z" fill="#3C4242"/>
<path d="M146.06 155.821V230.631L69.7061 259.987V274.143L158.672 239.931V150.965L146.06 155.821Z" fill="#BEBCBD"/>
<path d="M158.671 312.351C158.335 312.351 158.012 312.289 157.688 312.164L68.7222 277.965C67.664 277.554 66.9668 276.546 66.9668 275.413V186.447C66.9668 185.551 67.415 184.704 68.1495 184.194C68.6102 183.882 69.1455 183.708 69.6933 183.708C70.0294 183.708 70.3531 183.77 70.6768 183.895L159.643 218.094C160.701 218.505 161.398 219.513 161.398 220.646V309.612C161.398 310.508 160.95 311.355 160.215 311.865C159.755 312.189 159.219 312.351 158.671 312.351Z" fill="#8A33FD"/>
<path d="M69.7061 186.447L158.672 220.646V309.612L69.7061 275.413V186.447ZM69.7061 180.982C68.6106 180.982 67.5399 181.305 66.6062 181.94C65.1246 182.961 64.2407 184.642 64.2407 186.447V275.413C64.2407 277.679 65.6351 279.708 67.7515 280.517L156.717 314.716C157.352 314.965 158.012 315.077 158.684 315.077C159.78 315.077 160.851 314.754 161.784 314.119C163.266 313.098 164.15 311.417 164.15 309.612V220.646C164.15 218.381 162.755 216.351 160.651 215.542L71.6856 181.343C71.0383 181.106 70.366 180.982 69.7061 180.982Z" fill="#3C4242"/>
<path d="M144.566 215.231V288.672L69.7061 259.888V275.413L158.672 309.625V220.646L144.566 215.231Z" fill="#BEBCBD"/>
<path d="M176.836 249.99C175.952 249.99 175.105 249.567 174.583 248.795L160.228 227.768C159.917 227.319 159.755 226.772 159.755 226.224V219.177C159.755 218.044 160.452 217.036 161.51 216.625L246.666 183.882C246.99 183.758 247.314 183.696 247.65 183.696C248.534 183.696 249.38 184.131 249.903 184.891L268.067 211.496C268.541 212.181 268.665 213.052 268.416 213.849C268.167 214.646 267.569 215.281 266.785 215.592L177.819 249.791C177.496 249.941 177.16 249.99 176.836 249.99Z" fill="#EDEEF2"/>
<path d="M247.637 186.447L265.802 213.052L176.836 247.251L162.481 226.224V219.177L247.637 186.447ZM247.637 180.982C246.978 180.982 246.318 181.106 245.683 181.343L160.514 214.085C158.398 214.895 157.003 216.924 157.003 219.19V226.236C157.003 227.332 157.34 228.415 157.95 229.311L172.304 250.339C173.35 251.87 175.056 252.729 176.823 252.729C177.483 252.729 178.143 252.605 178.778 252.368L267.744 218.169C269.3 217.571 270.507 216.289 271.005 214.695C271.503 213.102 271.242 211.371 270.308 209.989L252.144 183.384C251.111 181.841 249.405 180.982 247.637 180.982Z" fill="#3C4242"/>
<path d="M232.249 192.373L240.242 204.138L166.664 232.436L176.835 247.264L265.801 213.064L247.637 186.447L232.249 192.373Z" fill="#BEBCBD"/>
<path d="M140.508 249.99C140.184 249.99 139.848 249.928 139.524 249.804L50.5586 215.604C49.7743 215.305 49.1767 214.671 48.9277 213.861C48.6787 213.064 48.8032 212.193 49.2763 211.508L67.4404 184.903C67.9633 184.144 68.8099 183.708 69.6938 183.708C70.0175 183.708 70.3537 183.77 70.6773 183.895L156.605 216.936C157.664 217.347 158.361 218.356 158.361 219.489V225.103C158.361 225.651 158.199 226.187 157.888 226.647L142.761 248.82C142.251 249.567 141.392 249.99 140.508 249.99Z" fill="#EDEEF2"/>
<path d="M69.7064 186.447L155.634 219.489V225.103L140.508 247.276L51.5423 213.077L69.7064 186.447ZM69.7064 180.982C67.9385 180.982 66.2329 181.841 65.1871 183.372L47.0355 209.977C46.0893 211.359 45.8403 213.089 46.3383 214.683C46.8363 216.277 48.0314 217.559 49.6001 218.156L138.566 252.356C139.201 252.605 139.873 252.717 140.52 252.717C142.288 252.717 143.994 251.858 145.04 250.326L160.166 228.154C160.789 227.245 161.112 226.174 161.112 225.078V219.464C161.112 217.198 159.718 215.168 157.601 214.359L71.6734 181.318C71.0261 181.106 70.3662 180.982 69.7064 180.982Z" fill="#3C4242"/>
<path d="M85.0945 192.373L77.1142 204.138L150.692 232.436L140.508 247.264L51.5425 213.064L69.7066 186.447L85.0945 192.373Z" fill="#BEBCBD"/>
<path d="M162.183 171.395C161.05 171.395 160.004 170.686 159.606 169.578L139.948 114.413L24.601 122.816C24.5387 122.816 24.464 122.829 24.4018 122.829C19.011 122.829 14.6163 118.496 14.5167 113.118L2.73926 12.9353C2.72681 12.8357 2.71436 12.7236 2.71436 12.6116C2.71436 7.1586 7.14645 2.7265 12.5994 2.7265C12.6617 2.7265 12.7115 2.7265 12.7737 2.7265L175.367 13.0473C180.77 13.0971 185.153 17.5043 185.153 22.9199V101.938C185.153 107.354 180.783 111.761 175.38 111.811L164.909 112.57V168.644C164.909 169.976 163.951 171.109 162.643 171.333C162.494 171.383 162.345 171.395 162.183 171.395Z" fill="#F6F6F6"/>
<path d="M12.6116 5.46543L175.292 15.7987C179.239 15.7987 182.438 18.9983 182.438 22.9448V101.963C182.438 105.91 179.239 109.109 175.292 109.109L162.195 110.068V168.681L141.84 111.549L24.4139 120.102C20.4673 120.102 17.2678 116.903 17.2678 112.956L5.47787 12.624C5.46542 8.665 8.66501 5.46543 12.6116 5.46543ZM12.6116 0C5.65217 0 0 5.66462 0 12.624C0 12.8357 0.0124482 13.0473 0.0373476 13.259L11.8023 113.305C12.0015 120.09 17.579 125.555 24.4139 125.555C24.5508 125.555 24.6753 125.555 24.8123 125.543L138.08 117.289L157.041 170.499C157.825 172.703 159.904 174.134 162.182 174.134C162.494 174.134 162.805 174.109 163.116 174.06C165.731 173.611 167.648 171.333 167.648 168.669V115.135L175.504 114.562C182.351 114.438 187.891 108.835 187.891 101.951V22.9324C187.891 16.0477 182.339 10.4329 175.479 10.3208L12.9602 0.0124524C12.8481 2.65983e-06 12.7361 0 12.6116 0Z" fill="#3C4242"/>
<path d="M41.5324 16.0851L21.949 14.8401C18.4506 14.8401 15.6245 17.6786 15.6245 21.1645L21.3638 70.0048" stroke="#3C4242" stroke-width="5.46568" stroke-miterlimit="10" stroke-linecap="round" stroke-linejoin="round"/>
<path d="M175.292 15.7862L163.975 15.0641V85.8657C163.975 89.8123 160.776 93.0118 156.829 93.0118L147.828 93.6717L147.031 93.7339L143.72 93.9705L16.1099 103.27L17.2552 112.944C17.2552 116.89 20.4548 120.09 24.4014 120.09L141.827 111.537L143.732 116.866L162.195 168.669V110.056L175.292 109.097C179.239 109.097 182.438 105.897 182.438 101.951V22.9324C182.438 18.9858 179.239 15.7862 175.292 15.7862Z" fill="#8A33FD"/>
<path d="M175.292 15.7863L172.018 15.5746V94.5058C172.018 98.4524 168.819 101.652 164.872 101.652L151.775 102.611V139.424L162.195 168.669V110.056L175.292 109.097C179.239 109.097 182.439 105.897 182.439 101.951V22.9324C182.439 18.9858 179.239 15.7863 175.292 15.7863Z" fill="#BEBCBD"/>
<circle cx="66.7214" cy="45.3097" r="5.30973" fill="#2A2F2F"/>
<circle cx="116.278" cy="45.3097" r="5.30973" fill="#2A2F2F"/>
<path d="M83.3584 75.6266C87.2522 68.075 98.7212 57.5027 113.447 75.6266" stroke="#2A2F2F" stroke-width="5" stroke-linecap="round"/>
</svg>
